<svg xmlns="http://www.w3.org/2000/svg" width="800" height="500" viewBox="0 0 800 500">
  <rect width="800" height="500" fill="#f5f5f5"/>
  
  <!-- Background -->
  <rect x="50" y="50" width="700" height="400" rx="10" fill="#ffffff" stroke="#e0e0e0" stroke-width="2"/>
  
  <!-- Title -->
  <text x="400" y="90" font-family="Arial" font-size="24" font-weight="bold" text-anchor="middle" fill="#333333">Dynamic Modal NuGet Package</text>
  <text x="400" y="115" font-family="Arial" font-size="14" fill="#767676" text-anchor="middle">40,000+ Downloads</text>
  
  <!-- NuGet Package Icon -->
  <rect x="100" y="150" width="240" height="200" rx="10" fill="#004880"/>
  <path d="M170,170 l100,0 l0,100 l-100,0 z" fill="#ffffff"/>
  <circle cx="220" cy="220" r="30" fill="#004880"/>
  <text x="220" y="275" font-family="Arial" font-size="16" text-anchor="middle" fill="#ffffff">DynamicModal</text>
  <text x="220" y="295" font-family="Arial" font-size="14" text-anchor="middle" fill="#ffffff">v3.5.2</text>
  <text x="220" y="315" font-family="Arial" font-size="12" text-anchor="middle" fill="#ffffff">By Farouk Elkhabbaz</text>
  
  <!-- Code Snippet -->
  <rect x="390" y="150" width="350" height="200" rx="5" fill="#1e1e1e"/>
  <text x="410" y="175" font-family="Consolas, monospace" font-size="14" fill="#569cd6">public static class</text>
  <text x="550" y="175" font-family="Consolas, monospace" font-size="14" fill="#4ec9b0">DynamicModalExtensions</text>
  
  <text x="410" y="195" font-family="Consolas, monospace" font-size="14" fill="#d4d4d4">{</text>
  <text x="430" y="215" font-family="Consolas, monospace" font-size="14" fill="#569cd6">public static</text>
  <text x="510" y="215" font-family="Consolas, monospace" font-size="14" fill="#4ec9b0">IHtmlContent</text>
  <text x="600" y="215" font-family="Consolas, monospace" font-size="14" fill="#dcdcaa">RenderModal</text>
  <text x="680" y="215" font-family="Consolas, monospace" font-size="14" fill="#d4d4d4">(</text>
  
  <text x="450" y="235" font-family="Consolas, monospace" font-size="14" fill="#569cd6">this</text>
  <text x="480" y="235" font-family="Consolas, monospace" font-size="14" fill="#4ec9b0">IHtmlHelper</text>
  <text x="570" y="235" font-family="Consolas, monospace" font-size="14" fill="#d4d4d4">htmlHelper,</text>
  
  <text x="450" y="255" font-family="Consolas, monospace" font-size="14" fill="#4ec9b0">ModalConfig</text>
  <text x="530" y="255" font-family="Consolas, monospace" font-size="14" fill="#d4d4d4">config)</text>
  
  <text x="430" y="275" font-family="Consolas, monospace" font-size="14" fill="#d4d4d4">{</text>
  <text x="450" y="295" font-family="Consolas, monospace" font-size="14" fill="#6a9955">// Implementation...</text>
  <text x="430" y="315" font-family="Consolas, monospace" font-size="14" fill="#d4d4d4">}</text>
  <text x="410" y="335" font-family="Consolas, monospace" font-size="14" fill="#d4d4d4">}</text>
  
  <!-- Modal Preview -->
  <rect x="150" y="370" width="500" height="60" rx="5" fill="#f0f0f0" stroke="#767676" stroke-width="1"/>
  <rect x="150" y="370" width="500" height="30" rx="5 5 0 0" fill="#f5f5f5" stroke="#767676" stroke-width="1"/>
  <text x="170" y="390" font-family="Arial" font-size="14" fill="#333333">Modal Title</text>
  <text x="640" y="390" font-family="Arial" font-size="14" fill="#767676">×</text>
  <text x="170" y="415" font-family="Arial" font-size="12" fill="#333333">Dynamic modal content can be loaded via AJAX or set directly.</text>
  
  <!-- NuGet Stats -->
  <rect x="470" y="370" width="30" height="30" rx="15" fill="#0078d720" stroke="#0078d7" stroke-width="2"/>
  <text x="485" y="390" font-family="Arial" font-size="14" text-anchor="middle" fill="#0078d7">↓</text>
  <text x="510" y="390" font-family="Arial" font-size="14" fill="#0078d7">40K+</text>
  
  <rect x="560" y="370" width="30" height="30" rx="15" fill="#0078d720" stroke="#0078d7" stroke-width="2"/>
  <text x="575" y="390" font-family="Arial" font-size="14" text-anchor="middle" fill="#0078d7">★</text>
  <text x="600" y="390" font-family="Arial" font-size="14" fill="#0078d7">4.8</text>
</svg>
